<svg width="100" height="100" viewBox="0 0 100 100" xmlns="http://www.w3.org/2000/svg">
  <!-- Background circle -->
  <circle cx="50" cy="50" r="45" fill="#F0E68C" stroke="#DEB887" stroke-width="2"/>
  
  <!-- Bear ears -->
  <circle cx="35" cy="30" r="12" fill="#8B4513"/>
  <circle cx="65" cy="30" r="12" fill="#8B4513"/>
  <circle cx="35" cy="30" r="8" fill="#DEB887"/>
  <circle cx="65" cy="30" r="8" fill="#DEB887"/>
  
  <!-- Bear head -->
  <circle cx="50" cy="45" r="22" fill="#8B4513"/>
  
  <!-- Bear face -->
  <ellipse cx="50" cy="50" rx="18" ry="15" fill="#DEB887"/>
  
  <!-- Eyes -->
  <circle cx="43" cy="42" r="3" fill="#000"/>
  <circle cx="57" cy="42" r="3" fill="#000"/>
  <circle cx="44" cy="41" r="1" fill="#FFF"/>
  <circle cx="58" cy="41" r="1" fill="#FFF"/>
  
  <!-- Nose -->
  <ellipse cx="50" cy="48" rx="2" ry="1.5" fill="#000"/>
  
  <!-- Mouth -->
  <path d="M 50 50 Q 45 55 40 52" stroke="#000" stroke-width="2" fill="none"/>
  <path d="M 50 50 Q 55 55 60 52" stroke="#000" stroke-width="2" fill="none"/>
  
  <!-- Bear body -->
  <ellipse cx="50" cy="75" rx="15" ry="18" fill="#8B4513"/>
  
  <!-- Heart on chest -->
  <path d="M 50 70 C 45 65, 35 65, 35 75 C 35 85, 50 90, 50 90 C 50 90, 65 85, 65 75 C 65 65, 55 65, 50 70 Z" fill="#FF69B4"/>
</svg> 