<svg width="100" height="100" viewBox="0 0 100 100" xmlns="http://www.w3.org/2000/svg">
  <!-- Background circle -->
  <circle cx="50" cy="50" r="45" fill="#FFE4E1" stroke="#FF69B4" stroke-width="2"/>
  
  <!-- Clown face -->
  <circle cx="50" cy="40" r="25" fill="#FFEAA7"/>
  
  <!-- Red nose -->
  <circle cx="50" cy="40" r="4" fill="#FF6B6B"/>
  
  <!-- Eyes -->
  <circle cx="42" cy="35" r="3" fill="#000"/>
  <circle cx="58" cy="35" r="3" fill="#000"/>
  <circle cx="43" cy="34" r="1" fill="#FFF"/>
  <circle cx="59" cy="34" r="1" fill="#FFF"/>
  
  <!-- Smile -->
  <path d="M 35 45 Q 50 55 65 45" stroke="#FF6B6B" stroke-width="3" fill="none"/>
  
  <!-- Hat -->
  <ellipse cx="50" cy="20" rx="15" ry="8" fill="#6C5CE7"/>
  <rect x="42" y="12" width="16" height="8" fill="#6C5CE7"/>
  
  <!-- Bow tie -->
  <path d="M 45 55 L 50 50 L 55 55 L 50 60 Z" fill="#FDCB6E"/>
  
  <!-- Confetti -->
  <rect x="20" y="15" width="3" height="3" fill="#FF6B6B" transform="rotate(45)"/>
  <rect x="75" y="25" width="3" height="3" fill="#74B9FF" transform="rotate(45)"/>
  <rect x="25" y="70" width="3" height="3" fill="#55A3FF" transform="rotate(45)"/>
  <rect x="80" y="60" width="3" height="3" fill="#FDCB6E" transform="rotate(45)"/>
</svg> 