<svg width="100" height="100" viewBox="0 0 100 100" xmlns="http://www.w3.org/2000/svg">
  <!-- Background circle -->
  <circle cx="50" cy="50" r="45" fill="#FFE4E4" stroke="#FF4444" stroke-width="2"/>
  
  <!-- Threatening hand/fist -->
  <ellipse cx="30" cy="50" rx="12" ry="15" fill="#FDBCB4"/>
  <rect x="18" y="58" width="8" height="15" fill="#2C3E50"/>
  
  <!-- Fingers -->
  <rect x="22" y="42" width="3" height="8" fill="#FDBCB4" rx="1"/>
  <rect x="26" y="40" width="3" height="10" fill="#FDBCB4" rx="1"/>
  <rect x="30" y="40" width="3" height="10" fill="#FDBCB4" rx="1"/>
  <rect x="34" y="42" width="3" height="8" fill="#FDBCB4" rx="1"/>
  
  <!-- Weapon/gun -->
  <rect x="45" y="35" width="25" height="8" fill="#2C3E50" rx="2"/>
  <rect x="70" y="37" width="8" height="4" fill="#2C3E50"/>
  <rect x="43" y="39" width="5" height="3" fill="#8B4513"/>
  <circle cx="47" cy="40.5" r="1" fill="#000"/>
  
  <!-- Threat/danger symbols -->
  <path d="M 15 20 L 25 10 L 35 20 L 25 30 Z" fill="#FF4444"/>
  <text x="25" y="25" text-anchor="middle" fill="#FFF" font-size="12" font-weight="bold">!</text>
  
  <!-- Fear/victim representation -->
  <circle cx="75" cy="65" r="10" fill="#FDBCB4"/>
  <circle cx="72" cy="62" r="1.5" fill="#000"/>
  <circle cx="78" cy="62" r="1.5" fill="#000"/>
  <path d="M 70 68 Q 75 72 80 68" stroke="#000" stroke-width="1" fill="none"/>
  
  <!-- Threat lines/force -->
  <path d="M 42 42 L 65 60 M 45 45 L 68 63 M 48 48 L 71 66" stroke="#FF4444" stroke-width="2"/>
  
  <!-- Warning text area -->
  <rect x="15" y="75" width="70" height="15" fill="#FF4444" rx="3"/>
  <text x="50" y="85" text-anchor="middle" fill="#FFF" font-size="8" font-weight="bold">THREAT</text>
  
  <!-- Danger sparks -->
  <circle cx="85" cy="30" r="2" fill="#FF4444"/>
  <circle cx="90" cy="25" r="1.5" fill="#FF4444"/>
  <circle cx="82" cy="25" r="1" fill="#FF4444"/>
</svg> 